<?xml version="1.0" encoding="UTF-8" standalone="no"?>
<!-- Created with Inkscape (http://www.inkscape.org/) -->

<svg
   width="276.55814mm"
   height="32.577759mm"
   viewBox="0 0 276.55814 32.577759"
   version="1.1"
   id="svg5"
   inkscape:version="1.1.2 (1:1.1+202202050950+0a00cf5339)"
   sodipodi:docname="logo_light.svg"
   xmlns:inkscape="http://www.inkscape.org/namespaces/inkscape"
   xmlns:sodipodi="http://sodipodi.sourceforge.net/DTD/sodipodi-0.dtd"
   xmlns="http://www.w3.org/2000/svg"
   xmlns:svg="http://www.w3.org/2000/svg">
  <sodipodi:namedview
     id="namedview7"
     pagecolor="#ffffff"
     bordercolor="#999999"
     borderopacity="1"
     inkscape:pageshadow="0"
     inkscape:pageopacity="0"
     inkscape:pagecheckerboard="0"
     inkscape:document-units="mm"
     showgrid="false"
     inkscape:zoom="0.64"
     inkscape:cx="596.09375"
     inkscape:cy="-78.125"
     inkscape:window-width="1360"
     inkscape:window-height="715"
     inkscape:window-x="0"
     inkscape:window-y="21"
     inkscape:window-maximized="1"
     inkscape:current-layer="text1335"
     fit-margin-top="5"
     fit-margin-left="5"
     fit-margin-right="5"
     fit-margin-bottom="5"
     lock-margins="true" />
  <defs
     id="defs2" />
  <g
     inkscape:label="Layer 1"
     inkscape:groupmode="layer"
     id="layer1"
     transform="translate(-10.220934,-88.711119)">
    <g
       aria-label="INKSCAPE STUDIOS"
       id="text1335"
       style="font-size:28.2222px;line-height:1.25;font-family:Anurati;-inkscape-font-specification:'Anurati, Normal';letter-spacing:0px;word-spacing:0px;stroke-width:0.264583">
      <path
         d="m 18.974487,97.43645 -3.753553,-3.725331 v 22.577761 l 3.753553,-3.78178 z"
         id="path823" />
      <path
         d="M 34.186235,93.711119 V 107.22955 L 19.172025,93.711119 v 5.700885 l 18.767763,16.876876 v -0.0282 -0.0282 -22.521311 z"
         id="path825" />
      <path
         d="m 43.838197,106.58044 9.764881,9.70844 z m 9.764881,-12.869321 -9.764881,9.736661 z m 5.305774,0 h -5.305774 l -9.764881,9.736661 -1.580444,1.58044 1.580444,1.55222 9.764881,9.70844 h 5.305774 L 47.619971,105 Z"
         id="path827" />
      <path
         d="m 68.84302,106.89089 c 0.790222,0 1.439332,0.28222 2.003776,0.84666 0.536222,0.56445 0.846666,1.21356 0.846666,1.97556 0,0.39511 -0.08467,0.762 -0.225777,1.10066 -0.141111,0.36689 -0.338667,0.64911 -0.592666,0.90311 -0.254,0.254 -0.564444,0.45156 -0.931333,0.59267 -0.338666,0.14111 -0.705555,0.19755 -1.100666,0.19755 v 3.78178 c 1.834443,0 3.386664,-0.64911 4.656663,-1.91911 1.298221,-1.29822 1.947332,-2.85044 1.947332,-4.65666 0,-1.80622 -0.649111,-3.35845 -1.947332,-4.65667 -1.269999,-1.27 -2.82222,-1.91911 -4.656663,-1.91911 h -5.616218 c -0.818444,0 -1.467554,-0.28222 -2.031998,-0.84666 -0.536222,-0.56445 -0.790222,-1.21356 -0.790222,-2.00378 0,-0.366887 0.05645,-0.733775 0.197556,-1.072442 0.141111,-0.338666 0.338666,-0.64911 0.592666,-0.90311 0.282222,-0.282222 0.564444,-0.479778 0.931332,-0.620889 0.338667,-0.141111 0.705555,-0.197555 1.100666,-0.197555 v -3.781775 c -1.834443,0 -3.386664,0.649111 -4.656663,1.947332 -1.269999,1.298221 -1.919109,2.82222 -1.919109,4.628439 0,1.83444 0.64911,3.38667 1.919109,4.68489 1.269999,1.27 2.82222,1.91911 4.656663,1.91911 z"
         id="path829" />
      <path
         d="m 83.038763,115.38577 c 1.354666,0.59267 2.82222,0.90311 4.374441,0.90311 1.552221,0 3.019776,-0.28222 4.374441,-0.87489 l -4.374441,-2.90689 c -1.044221,0 -2.003776,-0.19755 -2.935109,-0.56444 -0.90311,-0.39511 -1.693332,-0.93133 -2.370665,-1.63689 -0.705555,-0.67733 -1.241776,-1.46755 -1.636887,-2.37066 -0.395111,-0.93133 -0.592666,-1.89089 -0.592666,-2.93511 0,-1.04422 0.197555,-2.00378 0.592666,-2.93511 0.395111,-0.90311 0.931332,-1.69333 1.608665,-2.370664 0.677333,-0.705555 1.467555,-1.241777 2.398887,-1.636888 0.903111,-0.366889 1.890888,-0.564444 2.935109,-0.564444 2.031999,0 3.809997,0.705555 5.305774,2.173109 l 2.681109,-2.624664 c -1.044222,-1.044222 -2.257776,-1.862665 -3.612442,-2.455332 -1.354665,-0.592666 -2.82222,-0.874888 -4.374441,-0.874888 -1.552221,0 -3.019775,0.310444 -4.374441,0.90311 -1.382888,0.592667 -2.56822,1.382888 -3.612442,2.42711 -1.015999,1.015999 -1.834443,2.201331 -2.427109,3.556001 -0.592666,1.38288 -0.90311,2.85044 -0.90311,4.40266 0,1.524 0.310444,2.96333 0.90311,4.34622 0.592666,1.38289 1.41111,2.56822 2.427109,3.61244 1.044222,1.016 2.229554,1.83444 3.612442,2.42711 z"
         id="path831" />
      <path
         d="m 101.58072,108.78177 3.33022,-6.63221 3.30199,6.63221 h 4.23333 L 104.91094,93.711119 93.622057,116.28888 h 4.176886 l 1.919109,-3.78178 z m 12.72821,3.75356 h -4.17689 l 1.86267,3.75355 h 4.20511 z"
         id="path833" />
      <path
         d="m 134.17731,95.912451 c -1.46755,-1.467555 -3.24555,-2.201332 -5.30577,-2.201332 h -11.28888 l 3.75355,3.781775 h 7.53533 c 1.016,0 1.89089,0.366889 2.62466,1.100666 0.762,0.733777 1.12889,1.63689 1.12889,2.65289 0,1.04422 -0.39511,1.91911 -1.12889,2.65288 C 130.76243,104.63311 129.88754,105 128.87154,105 h -7.53533 -3.75355 v 11.28888 h 3.75355 v -7.50711 h 7.53533 c 2.06022,0 3.83822,-0.73377 5.30577,-2.20133 1.49578,-1.46755 2.20133,-3.27377 2.20133,-5.33399 0,-2.060224 -0.73377,-3.838223 -2.20133,-5.333999 z"
         id="path835" />
      <path
         d="m 136.35034,115.97844 v 0.31044 h 15.04244 V 112.5071 H 140.1039 Z m 0,-22.267321 3.75356,3.781775 h 11.28888 v -3.781775 z m 0,9.426211 v 3.75356 h 3.75356 11.28888 v -3.75356 H 140.1039 Z"
         id="path837" />
      <path
         d="m 173.54714,106.89089 c 0.79022,0 1.43933,0.28222 2.00378,0.84666 0.53622,0.56445 0.84666,1.21356 0.84666,1.97556 0,0.39511 -0.0847,0.762 -0.22577,1.10066 -0.14112,0.36689 -0.33867,0.64911 -0.59267,0.90311 -0.254,0.254 -0.56444,0.45156 -0.93133,0.59267 -0.33867,0.14111 -0.70556,0.19755 -1.10067,0.19755 v 3.78178 c 1.83444,0 3.38666,-0.64911 4.65666,-1.91911 1.29823,-1.29822 1.94734,-2.85044 1.94734,-4.65666 0,-1.80622 -0.64911,-3.35845 -1.94734,-4.65667 -1.27,-1.27 -2.82222,-1.91911 -4.65666,-1.91911 h -5.61622 c -0.81844,0 -1.46755,-0.28222 -2.032,-0.84666 -0.53622,-0.56445 -0.79022,-1.21356 -0.79022,-2.00378 0,-0.366887 0.0565,-0.733775 0.19756,-1.072442 0.14111,-0.338666 0.33866,-0.64911 0.59266,-0.90311 0.28223,-0.282222 0.56445,-0.479778 0.93134,-0.620889 0.33866,-0.141111 0.70555,-0.197555 1.10066,-0.197555 v -3.781775 c -1.83444,0 -3.38666,0.649111 -4.65666,1.947332 -1.27,1.298221 -1.91911,2.82222 -1.91911,4.628439 0,1.83444 0.64911,3.38667 1.91911,4.68489 1.27,1.27 2.82222,1.91911 4.65666,1.91911 z"
         id="path839" />
      <path
         d="m 184.01756,93.711119 v 3.781775 18.795986 h 3.78178 V 97.492894 h 7.5071 v -3.781775 z"
         id="path841" />
      <path
         d="m 213.45328,106.89089 c 0,1.524 -0.59267,2.85044 -1.69333,3.9511 -1.10067,1.10067 -2.42711,1.66511 -3.97933,1.66511 -1.55223,0 -2.90689,-0.53622 -4.00756,-1.66511 -1.07244,-1.07244 -1.60866,-2.39888 -1.60866,-3.9511 V 93.711119 h -3.75356 v 13.179771 c 0,2.56822 0.90312,4.82599 2.73756,6.66044 1.83444,1.83444 4.064,2.73755 6.63222,2.73755 2.56822,0 4.82599,-0.90311 6.66043,-2.73755 1.86267,-1.83445 2.76578,-4.064 2.76578,-6.66044 z"
         id="path843" />
      <path
         d="m 230.21721,100.65378 c -0.62089,-1.382887 -1.41111,-2.56822 -2.45533,-3.612441 -1.016,-1.015999 -2.22955,-1.834443 -3.58422,-2.42711 -1.38289,-0.592666 -2.82222,-0.90311 -4.37444,-0.90311 h -7.50711 l 3.75356,3.781775 h 3.75355 c 1.016,0 2.00378,0.197555 2.90689,0.564444 0.90311,0.395111 1.72155,0.959555 2.39888,1.636888 0.70556,0.705554 1.24178,1.495774 1.63689,2.398884 0.39511,0.93134 0.59267,1.89089 0.59267,2.90689 0,1.016 -0.19756,1.97555 -0.59267,2.90689 -0.39511,0.90311 -0.93133,1.69333 -1.60866,2.39888 -0.67734,0.70556 -1.49578,1.24178 -2.39889,1.63689 -0.90311,0.36689 -1.89089,0.56444 -2.93511,0.56444 h -3.75355 l -3.75356,3.78178 h 7.50711 c 1.55222,0 3.01977,-0.31044 4.37444,-0.90311 1.38289,-0.59267 2.59644,-1.41111 3.61244,-2.42711 1.016,-1.04422 1.80622,-2.22955 2.42711,-3.61244 0.59267,-1.35467 0.87489,-2.794 0.87489,-4.34622 0,-1.55222 -0.28222,-2.99155 -0.87489,-4.34622 z"
         id="path845" />
      <path
         d="m 239.47409,97.43645 -3.75355,-3.725331 v 22.577761 l 3.75355,-3.78178 z"
         id="path847" />
      <path
         d="m 250.96051,93.711119 c -3.13266,0 -5.78555,1.128888 -7.95866,3.33022 -2.20133,2.201331 -3.33022,4.854221 -3.33022,7.958661 0,3.13266 1.12889,5.75733 3.33022,7.95866 2.20133,2.20133 4.826,3.33022 7.95866,3.33022 3.13267,0 5.75733,-1.12889 7.95866,-3.33022 2.22956,-2.17311 3.35845,-4.826 3.35845,-7.95866 0,-3.10444 -1.12889,-5.75733 -3.35845,-7.958661 -2.20133,-2.201332 -4.82599,-3.33022 -7.95866,-3.33022 z m 0,3.781775 c 2.06022,0 3.83822,0.733777 5.30578,2.201332 1.46755,1.467554 2.20133,3.245554 2.20133,5.305774 0,2.06022 -0.70556,3.83822 -2.20133,5.334 -1.46756,1.46755 -3.24556,2.1731 -5.30578,2.1731 -2.06022,0 -3.86644,-0.70555 -5.33399,-2.1731 -1.46756,-1.46756 -2.17311,-3.27378 -2.17311,-5.334 0,-2.06022 0.70555,-3.83822 2.17311,-5.305774 1.49577,-1.495777 3.27377,-2.201332 5.33399,-2.201332 z"
         id="path849" />
      <path
         d="m 275.17507,106.89089 c 0.79022,0 1.43933,0.28222 2.00378,0.84666 0.53622,0.56445 0.84666,1.21356 0.84666,1.97556 0,0.39511 -0.0847,0.762 -0.22577,1.10066 -0.14112,0.36689 -0.33867,0.64911 -0.59267,0.90311 -0.254,0.254 -0.56445,0.45156 -0.93133,0.59267 -0.33867,0.14111 -0.70556,0.19755 -1.10067,0.19755 v 3.78178 c 1.83444,0 3.38666,-0.64911 4.65666,-1.91911 1.29822,-1.29822 1.94734,-2.85044 1.94734,-4.65666 0,-1.80622 -0.64912,-3.35845 -1.94734,-4.65667 -1.27,-1.27 -2.82222,-1.91911 -4.65666,-1.91911 h -5.61622 c -0.81844,0 -1.46755,-0.28222 -2.032,-0.84666 -0.53622,-0.56445 -0.79022,-1.21356 -0.79022,-2.00378 0,-0.366887 0.0564,-0.733775 0.19756,-1.072442 0.14111,-0.338666 0.33866,-0.64911 0.59266,-0.90311 0.28223,-0.282222 0.56445,-0.479778 0.93134,-0.620889 0.33866,-0.141111 0.70555,-0.197555 1.10066,-0.197555 v -3.781775 c -1.83444,0 -3.38666,0.649111 -4.65666,1.947332 -1.27,1.298221 -1.91911,2.82222 -1.91911,4.628439 0,1.83444 0.64911,3.38667 1.91911,4.68489 1.27,1.27 2.82222,1.91911 4.65666,1.91911 z"
         id="path851" />
    </g>
  </g>
</svg>
